<svg width="185" height="40" viewBox="0 0 185 40" fill="none" xmlns="http://www.w3.org/2000/svg">
<path d="M34.1422 5.85781C30.3647 2.08031 25.3422 0 20 0C14.6578 0 9.63531 2.08031 5.85781 5.85781C2.08031 9.63531 0 14.6578 0 20C0 25.3422 2.08039 30.3646 5.85781 34.1422C9.63523 37.9198 14.6578 40 20 40C25.3422 40 30.3647 37.9197 34.1422 34.1422C37.9197 30.3647 40 25.3422 40 20C40 14.6578 37.9196 9.63539 34.1422 5.85781Z" fill="#33CC95"/>
<g clip-path="url(#clip0)">
<path d="M20.5714 8V33.1429" stroke="white" stroke-width="2" stroke-linecap="round" stroke-linejoin="round"/>
<path d="M26.2857 12.5714H17.7143C16.6534 12.5714 15.636 12.9929 14.8859 13.743C14.1357 14.4931 13.7143 15.5106 13.7143 16.5714C13.7143 17.6323 14.1357 18.6497 14.8859 19.3999C15.636 20.15 16.6534 20.5714 17.7143 20.5714H23.4286C24.4894 20.5714 25.5069 20.9929 26.257 21.743C27.0072 22.4932 27.4286 23.5106 27.4286 24.5714C27.4286 25.6323 27.0072 26.6497 26.257 27.3999C25.5069 28.15 24.4894 28.5714 23.4286 28.5714H13.7143" stroke="white" stroke-width="2" stroke-linecap="round" stroke-linejoin="round"/>
</g>
<path d="M65.7862 14.704L57.5542 34.288H53.9782L56.8582 27.664L51.5302 14.704H55.2982L58.7302 23.992L62.2102 14.704H65.7862ZM70.9574 16.648C71.3894 16.008 71.9814 15.488 72.7334 15.088C73.5014 14.688 74.3734 14.488 75.3494 14.488C76.4854 14.488 77.5094 14.768 78.4214 15.328C79.3494 15.888 80.0774 16.688 80.6054 17.728C81.1494 18.752 81.4214 19.944 81.4214 21.304C81.4214 22.664 81.1494 23.872 80.6054 24.928C80.0774 25.968 79.3494 26.776 78.4214 27.352C77.5094 27.928 76.4854 28.216 75.3494 28.216C74.3574 28.216 73.4854 28.024 72.7334 27.64C71.9974 27.24 71.4054 26.728 70.9574 26.104V28H67.5974V10.24H70.9574V16.648ZM77.9894 21.304C77.9894 20.504 77.8214 19.816 77.4854 19.24C77.1654 18.648 76.7334 18.2 76.1894 17.896C75.6614 17.592 75.0854 17.44 74.4614 17.44C73.8534 17.44 73.2774 17.6 72.7334 17.92C72.2054 18.224 71.7734 18.672 71.4374 19.264C71.1174 19.856 70.9574 20.552 70.9574 21.352C70.9574 22.152 71.1174 22.848 71.4374 23.44C71.7734 24.032 72.2054 24.488 72.7334 24.808C73.2774 25.112 73.8534 25.264 74.4614 25.264C75.0854 25.264 75.6614 25.104 76.1894 24.784C76.7334 24.464 77.1654 24.008 77.4854 23.416C77.8214 22.824 77.9894 22.12 77.9894 21.304ZM106.094 14.512C107.726 14.512 109.038 15.016 110.03 16.024C111.038 17.016 111.542 18.408 111.542 20.2V28H108.182V20.656C108.182 19.616 107.918 18.824 107.39 18.28C106.862 17.72 106.142 17.44 105.23 17.44C104.318 17.44 103.59 17.72 103.046 18.28C102.518 18.824 102.254 19.616 102.254 20.656V28H98.8938V20.656C98.8938 19.616 98.6298 18.824 98.1018 18.28C97.5738 17.72 96.8538 17.44 95.9418 17.44C95.0138 17.44 94.2778 17.72 93.7338 18.28C93.2058 18.824 92.9418 19.616 92.9418 20.656V28H89.5818V14.704H92.9418V16.312C93.3738 15.752 93.9258 15.312 94.5978 14.992C95.2858 14.672 96.0378 14.512 96.8538 14.512C97.8938 14.512 98.8218 14.736 99.6378 15.184C100.454 15.616 101.086 16.24 101.534 17.056C101.966 16.288 102.59 15.672 103.406 15.208C104.238 14.744 105.134 14.512 106.094 14.512ZM120.634 28.216C119.354 28.216 118.202 27.936 117.178 27.376C116.154 26.8 115.346 25.992 114.754 24.952C114.178 23.912 113.89 22.712 113.89 21.352C113.89 19.992 114.186 18.792 114.778 17.752C115.386 16.712 116.21 15.912 117.25 15.352C118.29 14.776 119.45 14.488 120.73 14.488C122.01 14.488 123.17 14.776 124.21 15.352C125.25 15.912 126.066 16.712 126.658 17.752C127.266 18.792 127.57 19.992 127.57 21.352C127.57 22.712 127.258 23.912 126.634 24.952C126.026 25.992 125.194 26.8 124.138 27.376C123.098 27.936 121.93 28.216 120.634 28.216ZM120.634 25.288C121.242 25.288 121.81 25.144 122.338 24.856C122.882 24.552 123.314 24.104 123.634 23.512C123.954 22.92 124.114 22.2 124.114 21.352C124.114 20.088 123.778 19.12 123.106 18.448C122.45 17.76 121.642 17.416 120.682 17.416C119.722 17.416 118.914 17.76 118.258 18.448C117.618 19.12 117.298 20.088 117.298 21.352C117.298 22.616 117.61 23.592 118.234 24.28C118.874 24.952 119.674 25.288 120.634 25.288ZM137.403 14.512C138.987 14.512 140.267 15.016 141.243 16.024C142.219 17.016 142.707 18.408 142.707 20.2V28H139.347V20.656C139.347 19.6 139.083 18.792 138.555 18.232C138.027 17.656 137.307 17.368 136.395 17.368C135.467 17.368 134.731 17.656 134.187 18.232C133.659 18.792 133.395 19.6 133.395 20.656V28H130.035V14.704H133.395V16.36C133.843 15.784 134.411 15.336 135.099 15.016C135.803 14.68 136.571 14.512 137.403 14.512ZM158.262 21.064C158.262 21.544 158.23 21.976 158.166 22.36H148.446C148.526 23.32 148.862 24.072 149.454 24.616C150.046 25.16 150.774 25.432 151.638 25.432C152.886 25.432 153.774 24.896 154.302 23.824H157.926C157.542 25.104 156.806 26.16 155.718 26.992C154.63 27.808 153.294 28.216 151.71 28.216C150.43 28.216 149.278 27.936 148.254 27.376C147.246 26.8 146.454 25.992 145.878 24.952C145.318 23.912 145.038 22.712 145.038 21.352C145.038 19.976 145.318 18.768 145.878 17.728C146.438 16.688 147.222 15.888 148.23 15.328C149.238 14.768 150.398 14.488 151.71 14.488C152.974 14.488 154.102 14.76 155.094 15.304C156.102 15.848 156.878 16.624 157.422 17.632C157.982 18.624 158.262 19.768 158.262 21.064ZM154.782 20.104C154.766 19.24 154.454 18.552 153.846 18.04C153.238 17.512 152.494 17.248 151.614 17.248C150.782 17.248 150.078 17.504 149.502 18.016C148.942 18.512 148.598 19.208 148.47 20.104H154.782ZM173.435 14.704L165.203 34.288H161.627L164.507 27.664L159.179 14.704H162.947L166.379 23.992L169.859 14.704H173.435Z" fill="white"/>
<defs>
<clipPath id="clip0">
<rect width="27.4286" height="27.4286" fill="white" transform="translate(6.85715 6.85714)"/>
</clipPath>
</defs>
</svg>
